<?xml version="1.0" encoding="utf-8"?>
<!-- Generator: Adobe Illustrator 19.2.1, SVG Export Plug-In . SVG Version: 6.00 Build 0)  -->
<!DOCTYPE svg PUBLIC "-//W3C//DTD SVG 1.1//EN" "http://www.w3.org/Graphics/SVG/1.1/DTD/svg11.dtd">
<svg version="1.1" id="Layer_2" xmlns="http://www.w3.org/2000/svg" xmlns:xlink="http://www.w3.org/1999/xlink" x="0px" y="0px"
	 viewBox="0 0 792 612" style="enable-background:new 0 0 792 612;" xml:space="preserve">
<style type="text/css">
	.st0{opacity:0.1;fill:#631C39;}
	.st1{opacity:0.28;}
	.st2{opacity:0.25;}
	.st3{opacity:0.1;fill:#FFFFFF;}
	.st4{opacity:0.1;}
	.st5{opacity:0.1;fill:#4C142B;}
	.st6{opacity:0.1;fill:#841945;}
</style>
<line class="st0" x1="-45.8" y1="552.9" x2="-45.8" y2="552.9"/>
<g class="st1">
	<g class="st2">
		<polygon class="st3" points="336.7,0 0,336.7 0,336.7 336.7,0 		"/>
		<polygon class="st3" points="677.5,0 65.5,612 65.5,612 677.5,0 		"/>
		<polygon class="st3" points="792,226.1 406.1,612 406.7,612 792,226.7 		"/>
		<polygon class="st4" points="792,397.1 577.1,612 792,612 		"/>
		<polygon class="st3" points="792,226.7 406.7,612 577.1,612 792,397.1 		"/>
		<polygon class="st4" points="792,226.1 792,55.9 235.9,612 406.1,612 		"/>
		<polygon class="st3" points="792,55.7 792,0 677.5,0 65.5,612 235.7,612 		"/>
		<polygon class="st5" points="792,55.9 792,55.7 235.7,612 235.9,612 		"/>
		<polygon class="st4" points="507.1,0 0,507.1 0,612 65.5,612 677.5,0 		"/>
		<polygon class="st3" points="336.7,0 0,336.7 0,507.1 507.1,0 		"/>
		<polygon class="st6" points="0,507.1 0,507.1 507.1,0 		"/>
		<polygon class="st3" points="0,0 0,166.2 166.2,0 		"/>
		<polygon class="st4" points="166.2,0 0,166.2 0,336.7 336.7,0 		"/>
	</g>
	<g class="st2">
		<polygon class="st3" points="455.3,0 792,336.7 792,336.7 455.3,0 		"/>
		<polygon class="st3" points="114.5,0 726.5,612 726.5,612 114.5,0 		"/>
		<polygon class="st3" points="0,226.1 385.9,612 385.3,612 0,226.7 		"/>
		<polygon class="st4" points="0,397.1 214.9,612 0,612 		"/>
		<polygon class="st3" points="0,226.7 385.3,612 214.9,612 0,397.1 		"/>
		<polygon class="st4" points="0,226.1 0,55.9 556.1,612 385.9,612 		"/>
		<polygon class="st3" points="0,55.7 0,0 114.5,0 726.5,612 556.3,612 		"/>
		<polygon class="st5" points="0,55.9 0,55.7 556.3,612 556.1,612 		"/>
		<polygon class="st4" points="284.9,0 792,507.1 792,612 726.5,612 114.5,0 		"/>
		<polygon class="st3" points="455.3,0 792,336.7 792,507.1 284.9,0 		"/>
		<polygon class="st6" points="792,507.1 792,507.1 284.9,0 		"/>
		<polygon class="st3" points="792,0 792,166.2 625.8,0 		"/>
		<polygon class="st4" points="625.8,0 792,166.2 792,336.7 455.3,0 		"/>
	</g>
</g>
</svg>
