<svg id="Layer_1" xmlns="http://www.w3.org/2000/svg" viewBox="0 0 600 155.8"><style>.st0{fill:#FFFFFF;}</style><path class="st0" d="M157.4 2.5c.6.1 1.2.4 1.7.4 5 .2 10 .2 15 .7 7.2.7 14.4 1.4 21.5 2.5 16.9 2.6 33.5 6.4 49.9 11.2C260.3 21.8 274.8 27 289 33c12.6 5.3 24.8 11.4 36.7 18.1.2.1.4.3.7.7-1.5.2-2.7.4-4 .6-3.4.4-6.9.7-10.3 1-.5 0-1 0-1.4-.2-19.2-10.4-39.4-18.5-60.2-24.8-10.5-3.2-21.3-5.8-32-8.3-6.2-1.5-12.6-2.3-19-3.3-5.6-.9-11.2-1.6-16.8-2.2-3.8-.4-7.7-.5-11.5-.7-6.4-.3-12.9-.6-19.3-.6-6.1 0-12.1.3-18.1 1-7.4.8-14.9 1.8-22.2 3.1-13.8 2.4-27.1 6.4-39.8 12.5-7.1 3.4-13.9 7.4-19.9 12.4-11 9.1-19 20.3-21.9 34.5-1 4.9-1.4 10-1.3 15 .1 6.8 1.1 13.6 4.1 19.9 4 8.6 10.3 15.1 18.2 20.1 8.7 5.6 18.3 8.9 28.5 10.9 7.4 1.4 14.9 1.9 22.3 1.5 13-.7 25.4-3.7 36.4-11.1 1.7-1.1 3.2-2.4 4.8-3.6 1.4-1.1 2.4-2.5 2.9-4.4.8-3.4 1.9-6.7 3-10.5-6.6 1-12.9 1.9-19.5 2.8 1-3.4 1.8-6.5 2.8-9.6.1-.4.7-.8 1.1-.8 2.2-.4 4.3-.7 6.5-1 3.8-.5 7.7-1 11.5-1.5 3.6-.5 7.3-.9 10.9-1.3 1.1-.1 2.2-.2 3.5-.4-.4 1.5-.8 2.7-1.1 4-1.7 6-3.5 12.1-5.2 18.1-1.3 4.4-4.4 7.2-8 9.7-9.2 6.4-19.6 10.4-30.3 13.3-5.5 1.5-11.2 2.7-16.8 3.8-4.1.7-8.2 1.1-12.3 1.3-5.2.3-10.4.5-15.5.3-5.3-.3-10.6-1-15.9-1.8-7.7-1.1-15.1-3.5-22.3-6.4-8.3-3.4-15.9-8-22.3-14.4-7-7.1-11.4-15.6-13.1-25.4-.2-1.3-.2-2.6-.4-3.9 0-.4-.3-.7-.4-1.1v-5.4c.2-1.5.5-2.9.7-4.4C3.2 83.9 5.2 77.9 8 72c3.6-7.5 8.2-14.3 13.8-20.5 5.8-6.6 12.3-12.3 19.4-17.5 9.2-6.6 19.1-12 29.5-16.4C82 12.9 93.6 9.3 105.6 7c5.3-1 10.7-1.8 16.1-2.5 4.6-.6 9.2-.9 13.8-1.3 2.7-.2 5.5-.2 8.2-.4.3 0 .6-.3.9-.4 4.3.1 8.5.1 12.8.1zm440.9 54.1c-.3 1.4-.7 2.8-1 4.3-1.6 8.2-5.4 15.3-10.5 21.8-6.7 8.6-15 15.2-24.3 20.8-12.4 7.4-25.9 12-39.8 15.4-6.5 1.6-13.2 2.7-19.8 3.8-3.8.6-7.6.8-11.5 1-5.5.3-11.1.7-16.6.6-5.6-.1-11.2-.7-16.8-1.2-11.2-.9-22.1-3.2-33-6s-21.5-6.3-31.8-10.8c-8.5-3.7-16.9-7.8-25.3-11.8-3.6-1.8-7.1-3.9-10.7-5.9-.5-.3-1-.5-1.7-.8-.9 2.6-1.7 5-2.5 7.5-.8 2.3-1.6 4.6-2.2 6.9-.3 1.3-1.1 1.7-2.2 1.9-3.2.5-6.3 1-9.7 1.6.8-2.6 1.6-5 2.3-7.5 4.5-14.1 9-28.1 13.5-42.2.3-.9.5-1.3 1.5-1.4 3.7-.3 7.4-.9 11.1-1.2 3.4-.3 6.9-.4 10.3-.3 2.1.1 4.2.5 6.1 1.2 5.1 2 6.2 5.2 4.7 10.6-1.2 4.3-4.3 7.4-7.7 10.2-3.8 3-8.1 5.1-12.7 6.7-.5.2-.9.3-1.9.7 2 1.1 3.5 2.1 5.1 2.9 16 8.5 32.5 15.7 49.8 20.8 8.7 2.6 17.4 4.8 26.4 6.1 5.1.7 10.2 1.5 15.3 1.8 7.2.5 14.5.8 21.7.6 6.4-.2 12.7-1.2 19-2.1 9.3-1.3 18.3-4 27-7.6 8.9-3.7 17.2-8.4 24.6-14.6 6.1-5 11.3-10.8 15.2-17.6 3.3-5.7 5.4-11.9 5.7-18.6.6-9.9-2.6-18.5-9.1-25.8-6.6-7.5-15.1-11.9-24.5-15-5.5-1.8-11.1-2.8-16.9-3.6-7.3-1-14.7-1.1-22-.8-8.7.4-17.3 1.5-25.9 3-20.3 3.6-39.9 9.7-59 17.4-12.3 5-24.4 10.7-36.5 16-1.2.5-2.6.6-4 .7-4.5.5-9 .9-13.5 1.3-2.3.2-4.7.6-7.2.9 2.7-1.2 5.3-2.5 7.9-3.6 9-4 18.1-8 27.2-11.9 19.4-8.2 39-15.7 59.4-21.1 8.6-2.2 17.3-3.9 26.1-5.5 5-.9 10.1-1.4 15.1-1.9 4.9-.5 9.8-.7 14.6-1 3-.2 5.9-.4 8.9-.3 6.4.3 12.8.7 19.2 1.2 7.9.6 15.6 2.4 23.2 4.8 8.6 2.7 16.6 6.7 23.6 12.5 7.4 6.2 12.6 13.8 14.7 23.4.3 1.3.5 2.6.8 3.9.3 2.5.3 5.2.3 7.8zm-239 19.9c4.2-.5 7.9-1.4 11.3-3.4 2.4-1.5 4.4-3.4 5.4-6.2 1.1-3.3.1-5.6-3.3-6.1-2.6-.4-5.2-.2-7.8-.1-.4 0-.8.7-1 1.2-1.3 3.8-2.6 7.7-3.8 11.5-.3 1-.5 1.9-.8 3.1z"/><path class="st0" d="M223.1 87.2c-1 3.6-2.1 7.2-3.1 10.8-2.6 9.3-5.1 18.6-7.8 27.8-.2.6-.9 1.2-1.4 1.4-3.2.6-6.4 1.1-9.6 1.7-.3 0-.6 0-1.1-.1 1.2-4.3 2.3-8.4 3.5-12.6 4-14.5 8.1-29 12.1-43.6 1-3.7 1.1-3.6 5-3.8 2.5-.1 5-.5 7.5-.9 1.1-.2 1.2.5 1.5 1.2 1.9 4.6 3.7 9.3 5.6 13.9l7.5 18c.1.3.4.6.7 1.1 1.3-4.4 2.5-8.5 3.7-12.6 2.2-7.6 4.3-15.2 6.5-22.8.2-.7.9-1.6 1.5-1.7 3.1-.5 6.1-.7 9.2-1h1.6c-1 3.5-1.9 6.8-2.8 10.1-4.3 14.9-8.7 29.7-13 44.6-.4 1.4-1 2-2.6 2.2-2.8.3-5.6.9-8.3 1.5-1.3.3-1.6-.5-1.9-1.3-4-9.6-7.9-19.1-11.8-28.7-.7-1.7-1.4-3.5-2.1-5.2-.1-.1-.3 0-.4 0zm34 31.9c2.4-8.3 4.8-16.4 7.1-24.5 2.9-10 5.9-20 8.8-30 .4-1.3 1.2-1.4 2.2-1.5 1.5-.2 2.9-.5 4.4-.5 3.8-.1 7.6-.2 11.3 0 2.3.2 4.5 1 6.7 1.7 5.8 2 7.3 7.9 6.7 12.5-.7 5.6-2.2 10.9-4.3 16.2-3.3 8.4-9.2 14.4-17 18.6-7.1 3.8-14.6 5.9-22.5 7-1.1.2-2.2.3-3.4.5zm14-10.5c5.3-1 9.5-3.2 12.5-7.1 5.3-7 8-15 8.2-23.8.1-5.1-3.2-7.3-7.6-7.5-1.2-.1-1.9.4-2.3 1.7C279 81.9 276 92 273 102c-.5 2.1-1.2 4.2-1.9 6.6zm-71.3-10.2c-.8 2.9-1.6 5.7-2.5 8.4-.1.4-.9.8-1.5.8-4 .6-8 1.1-12 1.7-.9.1-1.9.1-2.8.4-.5.1-1.1.6-1.2 1-1.2 4.4-2.4 8.8-3.7 13.4 6.9-1.1 13.6-2.2 20.6-3.3-.8 3-1.7 5.5-2.3 8.2-.4 1.7-1.9 1.1-2.7 1.2-9.8 1.7-19.7 3.3-29.5 4.9-.4.1-.7.2-1.3.4.9-3.4 1.7-6.6 2.6-9.8 4.5-16.9 9.1-33.7 13.6-50.6.3-1.2.9-1.7 1.9-1.8 3.3-.4 6.7-.7 10-1l10.5-1.2c3.3-.4 6.7-.7 10-1 .3 0 .7.1 1.2.1-.8 2.7-1.4 5.4-2.3 7.9-.2.5-1.5.8-2.4.9-4.4.6-8.8 1.1-13.3 1.6-1.2.1-2.4.3-3.6.3-1 0-1.5.3-1.7 1.2-1.6 6-3.2 11.9-4.8 17.9 0 .1 0 .2.1.6 5.7-.6 11.2-1.4 17.1-2.2zm138.8-18.9c-.8 2.5-1.5 4.8-2.3 7.1-.1.3-.6.7-1 .8-4.3.7-8.7 1.3-13 1.9-.8.1-1.7.2-2.5.4-.4.1-1 .5-1.1.8-1.1 3.5-2.2 7.1-3.3 10.7-.1.2 0 .4.1.8 6.6-1.1 13.2-2.2 20.2-3.3-.5 1.7-1.2 3.1-1.4 4.5-.4 2.8-2 3.7-4.6 4-8.2 1.2-16.3 2.7-24.4 4.1-1.7.3-3.5.5-5.4.8 1.9-6.2 3.7-12.1 5.5-18 3.4-11.2 6.8-22.3 10.2-33.5.5-1.6 1.3-2.1 2.9-2.2 3.5-.3 7.1-.8 10.6-1.2 2.4-.3 4.7-.4 7.1-.7 3.5-.4 7.1-.8 10.6-1.2.8-.1 1.7 0 2.7 0-.8 2.4-1.5 4.6-2.3 6.8-.1.3-.6.8-.9.8-4.1.5-8.1.9-12.2 1.3-2.3.3-4.6.6-6.8 1-.4.1-.9.4-1 .8-1.6 5.1-3.2 10.3-4.9 15.8 5.9-.8 11.4-1.6 17.2-2.3zm119.8-16.1c-1.1.5-1.8.9-2.5 1.2-.8.3-1.6.7-2.1-.4-.5-.9-.8-2.2.2-2.7 6.6-3.7 8.5-10.4 11-16.7 2-5.1 3.8-10.3 7-14.7 1.3-1.8 3.1-3.3 4.8-4.7 1.4-1.2 3.3-1.3 5.1-1.1.3 0 .6.1.8.3 1.6 1.2 1.2 5-.6 5.9-.4.2-.9.3-1.3.2-2.3-.5-3.8-.2-4.9 1.8-2.3 4.1-4.6 8.3-6.4 12.6-1.9 4.5-3.4 9.3-5 13.9-.2.5-.2 1.1-.5 2.1 1.6-.4 2.9-.7 4.1-1.2 4.1-1.4 7.5-3.6 10.2-7.1.7-.9 1.8-1.5 2.8-1.9 1.8-.7 2.8.3 2.3 2.2-.4 1.5-1 3-1.4 4.5-1.1 3.6-2.1 7.1-3.2 10.7-.3 1.1-.1 2 .8 2.8 1 .9.9 2-.3 2.6-1.5.6-3 1.1-4.6 1.3-1.7.2-2.5-1-2-2.7 1-3.7 2.1-7.3 3.2-11 0-.1 0-.3.1-.8-4.5 1.8-8.7 3.5-13 5.3 4.5 1 6.6 3.7 7.3 8.1.5 3.3 0 6.4-.8 9.5-1.9 7.4-5.3 14.1-10.5 19.7-1.1 1.2-2.5 2.2-3.9 2.9-3.6 1.9-5.4.3-5.7-3.5-.4-5.9.8-11.6 2.4-17.2 1.9-6.6 4-13.2 6.1-19.8.2-.6.3-1.1.5-2.1zm7.7 12.9c-.3-1.2-.7-3.3-1.5-5-.4-.8-1.8-1.3-2.8-1.6-.3-.1-1.2 1.2-1.4 1.9-1.3 4.6-2.7 9.2-3.8 13.9-.9 3.9-1.6 7.8-2.2 11.7-.1 1 .2 2.5.9 3 1.1.7 2.3-.3 2.9-1.2 4.7-6.6 7.2-13.9 7.9-22.7zm86.1-22.9c-1.7 1.5-3.2 3.2-5 4.5-1.3 1-3 1.8-4.5 2-3.7.6-5-1.9-4.9-5 .1-3.6 1.7-6.8 2.8-10.1.5-1.5.8-3 1-4.6.2-1.5 1.2-2 2.3-2.2s2.2-.1 3.3-.2c-.1 1.1.1 2.2-.2 3.2-.6 2-1.5 3.9-2.3 5.9-.6 1.7-1.3 3.3-1.6 5.1-.2.8.2 1.9.7 2.5.3.3 1.6.1 2.2-.3 4.1-2.6 6.7-6.6 8.9-10.9.6-1.2 1.2-2.4 1.6-3.6.7-2.2 2.5-2.9 4.4-3.3 1-.2 1.7.7 1.3 1.9-1.4 4.2-3 8.4-4.4 12.7-.8 2.5-1.5 5-2.2 7.6.6.1.9 0 1.2.1.5.3 1.3.7 1.4 1.2.1.5-.4 1.2-.8 1.7-.1.2-.4.3-.7.4-2.3.2-2.7 1.8-3.3 3.7-2 6.4-4.3 12.7-8.2 18.2-2.5 3.5-5.3 6.6-9.8 7.5-3.3.7-5.8-1-6.3-4.3-.8-5 1.1-9.3 3.6-13.3 4-6.5 9.7-11 16.9-13.6.5-.2 1-.8 1.2-1.3.6-1.7 1.1-3.5 1.7-5.3 0-.1-.1-.1-.3-.2zM549 64.5c-.6.2-1.1.4-1.5.6-4.1 2.1-7.6 5-10 9-1.8 3-3.2 6.1-3 9.8.2 2.6 1.6 3.6 3.8 2.2 1.2-.7 2.3-1.8 3.1-2.9 3.9-5.3 5.6-11.5 7.6-17.7.1-.3 0-.6 0-1zM411.2 87.1c-3.1-.1-4.8-3-3.7-4.7.5-.8 1.6-1.7 2.4-1.7 4.4-.2 7-2.8 8.2-6.5 2.8-8.1 5.3-16.3 7.9-24.5.2-.5.1-1.1.2-1.6.3-1.6-.6-2.1-1.9-2.4-.8-.2-2.1-.9-2.1-1.3 0-.8.6-1.9 1.3-2.4 2.4-1.8 5.4-2.3 8.2-2.3 2.2 0 3 .8 2.4 3.2-1.9 6.8-3.9 13.6-6 20.3-1.3 4.3-2.8 8.6-4.4 12.7-1.5 3.7-3.6 7.2-7.3 9.3-1.7.8-3.5 1.3-5.2 1.9zm84.3-33.4c1.3-1.4 2.3-2.6 3.4-3.7 1.8-1.6 3.7-3 6.3-3.2 3.1-.3 4.3 1.9 4.4 4.5.2 3.7-1.1 7-2.1 10.4-.5 1.8-.8 3.7-1.1 5.5-.1.7.2 1.6.6 2.2.7 1.3.2 2.1-1 2.6-1.3.6-2.7 1-4 0-1.3-1.1-1.4-2.7-1-4.2 1-3.8 2.2-7.6 3.1-11.5.3-1.2.2-2.9-.4-3.6-1-1-2.4.1-3.5.8-3.5 2.6-5.7 6.2-7.5 10-1 2.1-1.8 4.4-2.5 6.6-.6 1.7-2.6 3.3-4.3 3.1-1-.1-1.5-.7-1.1-1.8 1.3-3.7 2.4-7.5 3.8-11.2 1.2-3.3 2.1-6.7 1.8-10.3-.1-1.5.8-2.4 2.4-2.5 1.3-.1 2.4.4 2.5 1.8.3 1.4.2 2.8.2 4.5zm-57.1 9.4c1-.8 2.3-1.8 3.6-2.9 1.9-1.6 3.9-3.1 6.6-3.1 2.2 0 3.6 1 3.8 3.2.2 1.7.2 3.6-.1 5.3-.8 3.7-1.9 7.4-2.8 11.1-.2.9 0 2 .4 2.8.7 1.9.5 2.6-1.4 3.2-3 1-4.8-.5-4.4-3.1.5-2.8 1.1-5.5 1.8-8.3.4-1.8 1.1-3.6 1.5-5.4.2-.8.1-2.3-.4-2.5-.8-.4-2.3-.5-2.9 0-1.9 1.5-3.8 3.2-5.2 5.2-2.6 3.5-4.5 7.3-5.6 11.6-.5 2-2.3 3.4-4.4 3.5-.9 0-1.5-.2-1.2-1.3.7-2.3 1.5-4.6 2.2-6.9 1.1-3.7 2.3-7.4 3.4-11.1.3-1.1.2-2.4.1-3.6-.2-1.5.6-2.5 2.4-2.9 1.1-.3 2.4.5 2.6 1.7.1 1.2 0 2.6 0 3.5z"/><path class="st0" d="M528.1 50.9c-.9.5-1.4.8-1.9 1-1 .5-2 .9-2.7-.5-.6-1.3-.4-2.1.9-2.8 3.2-1.7 5-4.4 6.6-7.9-.9.2-1.5.4-2.2.4-.5 0-1.1-.1-1.4-.4-.3-.4-.4-1.1-.2-1.6.4-1.4 1.8-2 3.1-2.1 1.8-.2 2.8-1.1 3.2-2.8.3-1.2.8-2.3 1.2-3.4.7-1.8 3.3-3.2 5.1-2.7.2.1.5.8.4 1.1-.5 1.5-1.1 3-1.7 4.6-.1.4-.3.8-.5 1.3.7 0 1.3-.1 1.9 0 .7.2 1.9.4 2 .8.4 1.1 0 2.3-1.2 2.8-1.1.4-2.3.6-3.4 1-.6.2-1.2.6-1.4 1.1-2.3 6-3.9 12.1-4.9 18.4-.3 1.8-.3 3.7-.2 5.5.1.9.8 1.7 1.2 2.5.5 1 1.4 1.9.4 3-.9 1-2.1 1.6-3.6 1.2-2-.6-3.3-2.7-3.4-5.3-.3-4.8 1.2-9.2 2.3-13.7.2-.4.2-.8.4-1.5zm-8.8-6.3c2.2 0 2.8.7 2.4 2.3-1.2 4.1-2.5 8.2-3.7 12.3-.6 1.9-1.2 3.7.6 5.4.3.2.1 1.4-.2 1.8-1.5 1.4-3.3 1.9-5.3 1.7-1.6-.2-2.2-1.2-1.8-2.8.6-2.4 1.3-4.8 2-7.2.7-2.5 1.4-4.9 2.1-7.4.2-.6 0-1.4-.2-2-.7-1.6-.6-2.3 1-3 1.1-.6 2.4-.9 3.1-1.1zm5-8.1c0 2-1.5 3.9-3.4 4.4-1.3.3-2.5-.4-2.7-1.8-.4-2.6 1.4-4.8 4.1-5.2 1.3-.2 2 .8 2 2.6zM485.8 43c0 1.7-1.3 3.7-2.9 4.1-.8.2-2.3.1-2.6-.4-.5-1-.8-2.4-.4-3.4.4-1.1 1.5-2 2.6-2.6 2-.9 3.3.2 3.3 2.3zm-393 9.6c2.4-.3 4-2.5 3.7-4.9s-2.5-4-4.9-3.7-4 2.5-3.7 4.9 2.6 4 4.9 3.7zm-1.1-7.9c2-.3 3.8 1.1 4.1 3.1s-1.1 3.8-3.1 4.1-3.8-1.1-4.1-3.1 1.2-3.8 3.1-4.1zm-.6-4.8c-4.7.7-8 5-7.3 9.7.7 5 5.7 9.5 9.3 12.6 0 0 .6.5 1.2.4h.1c.6-.1 1-.7 1-.7 2.6-4 6.2-9.7 5.5-14.7-.8-4.7-5.1-7.9-9.8-7.3zm3 21.3s-.1 0 0 0c-.1.1-.2 0-.2 0-3-2.6-8.1-7.1-8.8-11.7-.5-3.9 2.2-7.6 6.1-8.1s7.6 2.2 8.1 6.1c.7 4.6-3 10.3-5.2 13.7zM124 43.8l-3 15.1-5.3.4-5.6-14.3 1.1 15.1-4.6.4-1-19.6 7-.6 5.3 14.3 2.8-15 7-.6 2.3 19.5-4.7.4-1.3-15.1zm29.3 12.7l-4.9.4-1.8-4-7.3.6-1.1 4.3-4.9.4 5.3-20.2 6.2-.5 8.5 19zM142 41.7l-2 7.9 5.1-.4-3.1-7.5zm21.4 8.2l-1.9.2.5 5.7-5 .4-1.7-19.6 7.2-.6c5.5-.5 8.6 2.1 8.9 6.1.5 4.6-2.4 7.4-8 7.8zm-.9-9.9c-.5 0-2 .2-2 .2l.5 6.1 2-.2c2.6-.2 3.7-1.4 3.5-3.4-.1-2-1.5-2.9-4-2.7z"/></svg>