<?xml version="1.0" encoding="utf-8"?>
<!-- Generator: Adobe Illustrator 20.0.0, SVG Export Plug-In . SVG Version: 6.00 Build 0)  -->
<!DOCTYPE svg PUBLIC "-//W3C//DTD SVG 1.1//EN" "http://www.w3.org/Graphics/SVG/1.1/DTD/svg11.dtd">
<svg version="1.1" id="Layer_1" xmlns="http://www.w3.org/2000/svg" xmlns:xlink="http://www.w3.org/1999/xlink" x="0px" y="0px"
	 viewBox="0 0 600 161" style="enable-background:new 0 0 600 161;" xml:space="preserve">
<style type="text/css">
	.st0{fill:#FFFFFF;}
</style>
<g>
	<path class="st0" d="M156.2,4.4c0.7,0.2,1.2,0.3,1.7,0.3c5.1,0.2,10.1,0.2,15,0.7c7.3,0.7,14.5,1.4,21.6,2.5
		c17,2.5,33.8,6.4,50.1,11.3c14.9,4.6,29.5,9.8,43.7,15.9c12.7,5.4,25,11.5,37,18.2l0.7,0.7c-1.5,0.2-2.7,0.3-4.1,0.7
		c-3.4,0.3-6.9,0.7-10.3,1c-0.5,0-1,0-1.4-0.2c-19.2-10.5-39.7-18.6-60.6-25c-10.6-3.2-21.4-5.9-32.2-8.3
		c-6.2-1.5-12.7-2.4-19.1-3.4c-5.6-0.8-11.3-1.7-16.9-2.2c-3.9-0.3-7.8-0.5-11.6-0.7c-6.2-0.5-12.8-0.8-19.2-0.8
		c-6.1,0-12.2,0.3-18.2,1c-7.4,0.8-15,1.9-22.3,3c-13.8,2.4-27.3,6.4-40,12.5c-7.1,3.4-14,7.4-20.1,12.5
		c-11,9.3-19.1,20.6-21.9,34.9c-1,4.9-1.4,10.1-1.4,15c0.2,6.9,1.2,13.7,4.1,20.1c4.1,8.6,10.3,15.2,18.2,20.3
		c8.8,5.6,18.4,8.9,28.7,11c7.4,1.4,15,1.9,22.4,1.5c13-0.7,25.5-3.7,36.6-11.1c1.7-1.2,3.2-2.4,4.9-3.5c1.4-1.2,2.4-2.5,2.9-4.4
		c0.8-3.4,1.9-6.8,3-10.6c-6.6,1-13,1.9-19.6,2.9c1-3.4,1.9-6.6,2.9-9.6c0.2-0.3,0.7-0.8,1.2-0.8l6.6-1l11.6-1.5
		c3.5-0.5,7.4-0.8,11-1.4c1.2-0.2,2.2-0.2,3.5-0.3c-0.3,1.5-0.8,2.7-1.2,4.1c-1.7,6.1-3.5,12.2-5.2,18.2c-1.4,4.4-4.4,7.3-8.1,9.8
		c-9.3,6.4-19.7,10.5-30.5,13.3c-5.6,1.5-11.3,2.7-16.9,3.9c-4.1,0.7-8.3,1.2-12.3,1.4c-5.2,0.3-10.5,0.5-15.5,0.3
		c-5.4-0.3-10.6-1-16-1.9c-7.8-1.2-15.2-3.5-22.4-6.4c-8.3-3.4-16-8.1-22.4-14.5C7,126.6,2.6,118,0.9,108.2
		c-0.2-1.4-0.2-2.5-0.3-3.9c0-0.3-0.3-0.7-0.3-1.2v-5.4c0.2-1.5,0.5-2.9,0.7-4.4c0.3-6.6,2.4-12.7,5.2-18.6
		c3.5-7.6,8.3-14.3,13.8-20.6c5.9-6.6,12.3-12.3,19.6-17.6c9.3-6.6,19.2-12.2,29.7-16.5C80.4,14.9,92.1,11.2,104,9
		c5.4-1,10.8-1.9,16.2-2.5c4.6-0.7,9.3-0.8,13.8-1.4c2.7-0.2,5.6-0.2,8.3-0.3c0.3,0,0.7-0.3,0.8-0.3C143.2,4.4,156.2,4.4,156.2,4.4z
		 M599.8,58.8c-0.3,1.4-0.7,2.9-1,4.4c-1.7,8.3-5.4,15.4-10.6,21.9c-6.8,8.6-15,15.4-24.5,20.9c-12.5,7.4-26,12.2-40,15.5
		c-6.6,1.7-13.3,2.7-19.9,3.9c-3.9,0.7-7.6,0.8-11.6,1c-5.6,0.3-11.1,0.7-16.7,0.7c-5.6-0.2-11.3-0.7-16.9-1.2
		c-11.3-0.8-22.3-3.2-33.3-6.1c-11-2.9-21.6-6.4-32.1-10.8c-8.6-3.7-17-7.8-25.5-11.8c-3.5-1.9-7.1-3.9-10.8-5.9
		c-0.5-0.3-1-0.5-1.7-0.8l-2.5,7.6c-0.8,2.4-1.7,4.6-2.2,6.9c-0.3,1.4-1.2,1.7-2.2,1.9c-3.2,0.5-6.4,1-9.8,1.7
		c0.8-2.5,1.7-5.1,2.4-7.6c4.6-14.2,9.1-28.2,13.5-42.5c0.3-0.8,0.5-1.4,1.5-1.4c3.7-0.3,7.4-0.8,11.1-1.2c3.4-0.3,6.9-0.3,10.3-0.3
		c2.2,0.2,4.2,0.5,6.1,1.2c5.1,2,6.2,5.2,4.7,10.6c-1.2,4.4-4.4,7.4-7.8,10.3c-3.9,3-8.1,5.1-12.8,6.8c-0.5,0.2-0.8,0.3-1.9,0.7
		c2,1.2,3.5,2.2,5.1,2.9c16,8.6,32.7,15.9,50.1,20.9c8.8,2.5,17.6,4.9,26.5,6.1c5.1,0.7,10.3,1.5,15.4,1.9
		c7.3,0.5,14.5,0.8,21.8,0.7c6.4-0.2,12.8-1.2,19.1-2.2c9.3-1.4,18.4-4.1,27.2-7.6c8.9-3.7,17.4-8.4,24.8-14.7
		c6.1-5.1,11.3-10.8,15.4-17.7c3.4-5.7,5.4-12,5.7-18.7c0.7-10-2.5-18.6-9.1-26c-6.6-7.6-15.2-12-24.6-15c-5.6-1.9-11.1-2.9-17-3.5
		c-7.4-1-14.9-1.2-22.1-0.8c-8.8,0.3-17.4,1.5-26,3c-20.4,3.5-40.2,9.8-59.4,17.6c-12.3,5.1-24.5,10.8-36.8,16
		c-1.2,0.5-2.5,0.7-4.1,0.7c-4.6,0.5-9.1,0.8-13.5,1.4c-2.4,0.2-4.7,0.7-7.3,0.8c2.7-1.2,5.4-2.5,7.9-3.5c9.1-4.1,18.2-8.1,27.3-12
		c19.6-8.3,39.2-15.9,59.7-21.3c8.6-2.2,17.4-3.9,26.3-5.6c5.1-0.8,10.1-1.4,15.2-1.9c4.9-0.5,9.8-0.7,14.7-1c3-0.2,5.9-0.3,8.9-0.3
		c6.4,0.3,12.8,0.7,19.2,1.2c7.9,0.7,15.7,2.4,23.3,4.9c8.6,2.7,16.7,6.8,23.8,12.5c7.4,6.2,12.7,13.8,14.9,23.5
		c0.3,1.4,0.5,2.5,0.8,3.9C599.8,53.5,599.8,56.2,599.8,58.8L599.8,58.8z M359.2,78.9c4.2-0.5,7.9-1.4,11.3-3.4
		c2.4-1.5,4.4-3.4,5.4-6.2c1.2-3.4,0.2-5.6-3.4-6.1c-2.5-0.3-5.2-0.2-7.8-0.2c-0.3,0-0.8,0.7-1,1.2c-1.4,3.9-2.5,7.8-3.9,11.6
		C359.7,76.7,359.6,77.7,359.2,78.9L359.2,78.9z"/>
	<path class="st0" d="M222.4,89.5c-1,3.5-2.2,7.3-3,10.8c-2.5,9.3-5.1,18.7-7.8,28c-0.2,0.7-0.8,1.2-1.4,1.4
		c-3.2,0.7-6.4,1.2-9.6,1.7c-0.3,0-0.7,0-1.2-0.2c1.2-4.4,2.4-8.4,3.5-12.7c4.1-14.5,8.1-29.2,12.2-43.9c1-3.7,1.2-3.5,5.1-3.9
		c2.5-0.2,5.1-0.5,7.6-0.8c1.2-0.2,1.2,0.5,1.5,1.2c1.9,4.6,3.7,9.3,5.6,14l7.6,18.1c0.2,0.3,0.3,0.7,0.7,1.2
		c1.4-4.4,2.5-8.6,3.7-12.7c2.2-7.6,4.4-15.4,6.6-23c0.2-0.7,0.8-1.7,1.5-1.7c3-0.5,6.1-0.7,9.3-1h1.7c-1,3.5-1.9,6.9-2.9,10.1
		c-4.4,15-8.8,29.9-13,44.9c-0.3,1.4-1,2-2.5,2.2c-2.9,0.3-5.6,0.8-8.3,1.5c-1.4,0.3-1.7-0.5-1.9-1.4c-4.1-9.6-7.9-19.2-11.8-28.9
		c-0.7-1.7-1.4-3.5-2.2-5.2C222.5,89.5,222.4,89.5,222.4,89.5L222.4,89.5z M256.5,121.7c2.4-8.3,4.9-16.5,7.1-24.6
		c2.9-10.1,5.9-20.1,8.8-30.2c0.3-1.4,1.2-1.4,2.2-1.5c1.5-0.2,2.9-0.5,4.4-0.5c3.9-0.2,7.6-0.2,11.3,0c2.4,0.2,4.6,1,6.8,1.7
		c5.9,2,7.4,7.9,6.8,12.5c-0.7,5.6-2.2,11-4.4,16.4c-3.4,8.4-9.3,14.5-17,18.7c-7.1,3.9-14.7,5.9-22.6,7.1
		C258.8,121.4,257.6,121.4,256.5,121.7z M270.6,111.1c5.4-1,9.6-3.2,12.5-7.1c5.4-7.1,8.1-15,8.3-24c0.2-5.1-3.2-7.4-7.6-7.6
		c-1.2-0.2-1.9,0.3-2.4,1.7c-2.9,10.1-5.9,20.3-8.9,30.2C272,106.5,271.3,108.7,270.6,111.1L270.6,111.1z M198.9,100.8
		c-0.8,2.9-1.7,5.7-2.5,8.4c-0.2,0.3-0.8,0.8-1.5,0.8c-4.1,0.7-8.1,1.2-12.2,1.7c-0.8,0.2-1.9,0.2-2.9,0.3c-0.5,0.2-1.2,0.7-1.2,1
		c-1.2,4.4-2.4,8.8-3.7,13.5c6.9-1.2,13.7-2.2,20.8-3.4c-0.8,3-1.7,5.6-2.4,8.3c-0.3,1.7-1.9,1.2-2.7,1.2
		c-9.8,1.7-19.7,3.4-29.7,4.9c-0.3,0.2-0.7,0.2-1.4,0.3c0.8-3.4,1.7-6.6,2.5-9.8c4.6-17,9.1-33.9,13.7-51c0.3-1.2,0.8-1.7,1.9-1.9
		l10.1-1l10.6-1.2l10.1-1c0.3,0,0.7,0.2,1.2,0.2c-0.8,2.7-1.4,5.4-2.4,7.9c-0.2,0.5-1.5,0.8-2.4,0.8c-4.4,0.7-8.8,1.2-13.3,1.7
		c-1.2,0.2-2.4,0.3-3.5,0.3c-1,0-1.5,0.3-1.7,1.2c-1.7,6.1-3.2,12-4.9,18.1c0,0.2,0,0.2,0.2,0.7
		C187.4,102.5,192.8,101.6,198.9,100.8z M338.5,81.9c-0.8,2.5-1.5,4.9-2.4,7.1c-0.2,0.3-0.7,0.7-1,0.8c-4.4,0.7-8.8,1.4-13,1.9
		c-0.8,0.2-1.7,0.2-2.5,0.3c-0.3,0.2-1,0.5-1.2,0.8c-1.2,3.5-2.2,7.1-3.4,10.8c-0.2,0.2,0,0.3,0.2,0.8c6.6-1.2,13.3-2.2,20.3-3.4
		c-0.5,1.7-1.2,3-1.4,4.6c-0.3,2.9-2,3.7-4.6,4.1c-8.3,1.2-16.4,2.7-24.5,4.1c-1.7,0.3-3.5,0.5-5.4,0.8c1.9-6.2,3.7-12.2,5.6-18.1
		c3.4-11.3,6.9-22.4,10.3-33.8c0.5-1.7,1.4-2.2,2.9-2.2c3.5-0.3,7.1-0.8,10.6-1.2c2.4-0.3,4.7-0.3,7.1-0.7c3.5-0.3,7.1-0.8,10.6-1.2
		c0.8-0.2,1.7,0,2.7,0c-0.8,2.4-1.5,4.6-2.4,6.9c-0.2,0.3-0.7,0.8-0.8,0.8c-4.1,0.5-8.1,0.8-12.3,1.4c-2.4,0.3-4.6,0.7-6.9,1
		c-0.3,0.2-0.8,0.3-1,0.8c-1.7,5.1-3.2,10.3-4.9,15.9C327.2,83.4,332.6,82.6,338.5,81.9L338.5,81.9z M459,65.7
		c-1.2,0.5-1.9,0.8-2.5,1.2c-0.8,0.3-1.7,0.7-2.2-0.3c-0.5-0.8-0.8-2.2,0.2-2.7c6.6-3.7,8.6-10.5,11.1-16.9c2-5.1,3.9-10.3,7.1-14.9
		c1.4-1.9,3-3.4,4.9-4.7c1.4-1.2,3.4-1.4,5.1-1.2c0.3,0,0.7,0.2,0.8,0.3c1.7,1.2,1.2,5.1-0.7,5.9c-0.3,0.2-0.8,0.3-1.4,0.2
		c-2.4-0.5-3.9-0.2-4.9,1.9c-2.4,4.1-4.6,8.3-6.4,12.7c-1.9,4.6-3.4,9.3-5.1,14c-0.2,0.5-0.2,1.2-0.5,2.2c1.7-0.3,2.9-0.7,4.1-1.2
		c4.1-1.4,7.6-3.5,10.3-7.1c0.7-0.8,1.9-1.5,2.9-1.9c1.9-0.7,2.9,0.3,2.4,2.2c-0.3,1.5-1,3-1.4,4.6c-1.2,3.5-2.2,7.1-3.2,10.8
		c-0.3,1.2-0.2,2,0.8,2.9c1,0.8,0.8,2-0.3,2.5c-1.5,0.7-3,1.2-4.6,1.4c-1.7,0.2-2.5-1-2-2.7c1-3.7,2.2-7.4,3.2-11.1
		c0-0.2,0-0.3,0.2-0.8c-4.6,1.9-8.8,3.5-13,5.4c4.6,1,6.6,3.7,7.4,8.1c0.5,3.4,0,6.4-0.8,9.6c-1.9,7.4-5.4,14.2-10.6,19.7
		c-1.2,1.2-2.5,2.2-3.9,2.9c-3.5,1.9-5.4,0.3-5.7-3.5c-0.3-5.9,0.8-11.6,2.4-17.4c1.9-6.6,4.1-13.3,6.1-19.9
		C458.7,67.2,458.8,66.7,459,65.7L459,65.7z M466.8,78.7c-0.3-1.2-0.7-3.4-1.5-5.1c-0.3-0.8-1.9-1.4-2.9-1.7
		c-0.3-0.2-1.2,1.2-1.4,1.9c-1.4,4.6-2.7,9.3-3.9,14c-0.8,3.9-1.7,7.8-2.2,11.8c-0.2,1,0.2,2.5,0.8,3c1.2,0.7,2.4-0.3,2.9-1.2
		C463.6,94.7,466.1,87.5,466.8,78.7L466.8,78.7z M553.3,55.6c-1.7,1.5-3.2,3.2-5.1,4.6c-1.4,1-3,1.9-4.6,2c-3.7,0.7-5.1-1.9-4.9-5.1
		c0.2-3.5,1.7-6.9,2.9-10.1c0.5-1.5,0.8-3,1-4.6c0.2-1.5,1.2-2,2.4-2.2c1.2-0.2,2.2-0.2,3.4-0.2c-0.2,1.2,0.2,2.2-0.2,3.2
		c-0.7,2-1.5,3.9-2.4,5.9c-0.7,1.7-1.4,3.4-1.7,5.1c-0.2,0.8,0.2,1.9,0.7,2.5c0.3,0.3,1.7,0.2,2.2-0.3c4.1-2.5,6.8-6.6,8.9-11
		c0.7-1.2,1.2-2.4,1.7-3.5c0.7-2.2,2.5-2.9,4.4-3.4c1-0.2,1.7,0.7,1.4,1.9c-1.4,4.2-3,8.4-4.4,12.8c-0.8,2.5-1.5,5.1-2.2,7.6
		c0.7,0.2,0.8,0,1.2,0.2c0.5,0.3,1.4,0.7,1.4,1.2c0.2,0.5-0.3,1.2-0.8,1.7c-0.2,0.2-0.3,0.3-0.7,0.3c-2.4,0.2-2.7,1.9-3.4,3.7
		c-2,6.4-4.4,12.8-8.3,18.2c-2.5,3.5-5.4,6.6-9.8,7.6c-3.4,0.7-5.9-1-6.4-4.4c-0.8-5.1,1.2-9.3,3.5-13.3c4.1-6.6,9.8-11.1,17-13.7
		c0.5-0.2,1-0.8,1.2-1.4c0.7-1.7,1.2-3.5,1.7-5.4C553.7,55.7,553.5,55.7,553.3,55.6L553.3,55.6z M550.1,66.7
		c-0.7,0.2-1.2,0.3-1.5,0.7c-4.1,2.2-7.6,5.1-10.1,9.1c-1.9,3-3.2,6.1-3,9.8c0.2,2.5,1.7,3.5,3.9,2.2c1.2-0.7,2.4-1.9,3-2.9
		c3.9-5.4,5.6-11.6,7.6-17.7C550.1,67.4,550.1,67.2,550.1,66.7z M411.6,89.5c-3-0.2-4.9-3-3.7-4.7c0.5-0.8,1.7-1.7,2.4-1.7
		c4.4-0.2,7.1-2.9,8.3-6.6c2.9-8.1,5.4-16.4,7.9-24.6c0.2-0.5,0.2-1.2,0.2-1.7c0.3-1.7-0.7-2.2-1.9-2.4c-0.8-0.2-2.2-0.8-2.2-1.4
		c0-0.8,0.7-1.9,1.4-2.4c2.4-1.9,5.4-2.4,8.3-2.4c2.2,0,3,0.8,2.4,3.2c-1.9,6.9-3.9,13.7-6.1,20.4c-1.4,4.4-2.9,8.6-4.4,12.8
		c-1.5,3.7-3.5,7.3-7.4,9.3C414.9,88.3,413.3,88.8,411.6,89.5L411.6,89.5z M496.3,55.9c1.4-1.4,2.4-2.5,3.4-3.7
		c1.9-1.7,3.7-3,6.4-3.2c3-0.3,4.4,1.9,4.4,4.6c0.2,3.7-1.2,7.1-2.2,10.5c-0.5,1.9-0.8,3.7-1.2,5.6c-0.2,0.7,0.2,1.7,0.7,2.2
		c0.7,1.4,0.2,2.2-1,2.5c-1.4,0.7-2.7,1-4.1,0c-1.4-1.2-1.4-2.7-1-4.2c1-3.9,2.2-7.6,3-11.6c0.3-1.2,0.2-2.9-0.3-3.5
		c-1-1-2.4,0.2-3.5,0.8c-3.5,2.5-5.7,6.2-7.6,10.1c-1,2.2-1.9,4.4-2.5,6.6c-0.7,1.7-2.5,3.4-4.4,3c-1-0.2-1.5-0.7-1.2-1.9
		c1.4-3.7,2.4-7.6,3.9-11.3c1.2-3.4,2.2-6.8,1.9-10.3c-0.2-1.5,0.8-2.4,2.4-2.5c1.4-0.2,2.4,0.3,2.5,1.9
		C496.5,52.7,496.3,54.2,496.3,55.9L496.3,55.9z M438.9,65.4c1-0.8,2.4-1.9,3.5-2.9c1.9-1.7,3.9-3,6.6-3c2.2,0,3.5,1,3.9,3.2
		c0.2,1.7,0.2,3.5-0.2,5.4c-0.8,3.7-1.9,7.4-2.9,11.1c-0.2,0.8,0,2,0.3,2.9c0.7,1.9,0.5,2.5-1.4,3.2c-3,1-4.9-0.5-4.4-3
		c0.5-2.9,1.2-5.6,1.9-8.3c0.3-1.9,1.2-3.5,1.5-5.4c0.2-0.8,0.2-2.4-0.3-2.5c-0.8-0.3-2.4-0.5-2.9,0c-1.9,1.5-3.9,3.2-5.2,5.2
		c-2.5,3.5-4.6,7.4-5.6,11.6c-0.5,2-2.4,3.4-4.4,3.5c-0.8,0-1.5-0.2-1.2-1.4c0.7-2.4,1.5-4.6,2.2-6.9c1.2-3.7,2.4-7.4,3.4-11.1
		c0.3-1.2,0.2-2.4,0.2-3.5c-0.2-1.5,0.7-2.5,2.4-2.9c1.2-0.3,2.4,0.5,2.5,1.7L438.9,65.4L438.9,65.4z"/>
	<path class="st0" d="M529,53c-0.8,0.5-1.4,0.8-1.9,1c-1,0.5-2,0.8-2.7-0.5c-0.7-1.4-0.3-2.2,0.8-2.9c3.2-1.7,5.1-4.4,6.6-7.9
		c-0.8,0.2-1.5,0.3-2.2,0.3c-0.5,0-1.2-0.2-1.4-0.3c-0.3-0.3-0.3-1.2-0.2-1.7c0.3-1.4,1.9-2,3-2.2c1.9-0.2,2.9-1.2,3.2-2.9
		c0.3-1.2,0.8-2.4,1.2-3.4c0.7-1.9,3.4-3.2,5.1-2.7c0.2,0.2,0.5,0.8,0.3,1.2c-0.5,1.5-1.2,3-1.7,4.6c-0.2,0.3-0.3,0.8-0.5,1.4
		c0.7,0,1.4-0.2,1.9,0c0.7,0.2,1.9,0.3,2,0.8c0.3,1.2,0,2.4-1.2,2.9c-1.2,0.3-2.4,0.7-3.4,1c-0.7,0.2-1.2,0.7-1.4,1.2
		c-2.4,6.1-3.9,12.2-4.9,18.6c-0.3,1.9-0.3,3.7-0.2,5.6c0.2,0.8,0.8,1.7,1.2,2.5c0.5,1,1.4,1.9,0.3,3c-0.8,1-2.2,1.7-3.5,1.2
		c-2-0.7-3.4-2.7-3.4-5.4c-0.3-4.9,1.2-9.3,2.4-13.8C528.9,54.2,528.9,53.7,529,53L529,53z M520.3,46.8c2.2,0,2.9,0.7,2.4,2.4
		c-1.2,4.1-2.5,8.3-3.7,12.3c-0.7,1.9-1.2,3.7,0.7,5.4c0.3,0.2,0.2,1.4-0.2,1.9c-1.5,1.4-3.4,1.9-5.4,1.7c-1.7-0.2-2.2-1.2-1.9-2.9
		c0.7-2.4,1.4-4.9,2-7.3c0.7-2.5,1.4-4.9,2.2-7.4c0.2-0.7,0-1.4-0.2-2c-0.7-1.7-0.7-2.4,1-3C518.2,47.3,519.6,47,520.3,46.8
		L520.3,46.8z M525.3,38.5c0,2-1.5,3.9-3.4,4.4c-1.4,0.3-2.5-0.3-2.7-1.9c-0.3-2.5,1.4-4.9,4.1-5.2
		C524.5,35.8,525.3,36.8,525.3,38.5z M486.5,45.1c0,1.7-1.4,3.7-2.9,4.1c-0.8,0.2-2.4,0.2-2.5-0.3c-0.5-1-0.8-2.4-0.3-3.4
		c0.3-1.2,1.5-2,2.5-2.5C485.2,41.9,486.5,43.1,486.5,45.1L486.5,45.1z"/>
</g>
</svg>
