<svg xmlns="http://www.w3.org/2000/svg" id="Layer_1" viewBox="0 0 360 95"><style>.st0{fill:#FFFFFF;}</style><path d="M94.9 2.6c.4.1.7.2 1 .2 3 .1 6 .1 8.9.4 4.3.4 8.6.8 12.8 1.5 10.1 1.5 20 3.8 29.7 6.7 8.8 2.7 17.5 5.8 25.9 9.4 7.5 3.2 14.8 6.8 21.9 10.8l.4.4c-.9.1-1.6.2-2.4.4-2 .2-4.1.4-6.1.6-.3 0-.6 0-.8-.1-11.4-6.2-23.5-11-35.9-14.8-6.3-1.9-12.7-3.5-19.1-4.9-3.7-.9-7.5-1.4-11.3-2-3.3-.5-6.7-1-10-1.3-2.3-.2-4.6-.3-6.9-.4-3.7-.3-7.6-.5-11.4-.5-3.6 0-7.2.2-10.8.6-4.4.5-8.9 1.1-13.2 1.8-8.2 1.4-16.2 3.8-23.7 7.4-4.2 2-8.3 4.4-11.9 7.4-6.5 5.5-11.3 12.2-13 20.7-.6 2.9-.8 6-.8 8.9.1 4.1.7 8.1 2.4 11.9 2.4 5.1 6.1 9 10.8 12 5.2 3.3 10.9 5.3 17 6.5 4.4.8 8.9 1.1 13.3.9 7.7-.4 15.1-2.2 21.7-6.6 1-.7 1.9-1.4 2.9-2.1.8-.7 1.4-1.5 1.7-2.6.5-2 1.1-4 1.8-6.3-3.9.6-7.7 1.1-11.6 1.7.6-2 1.1-3.9 1.7-5.7.1-.2.4-.5.7-.5l3.9-.6 6.9-.9c2.1-.3 4.4-.5 6.5-.8.7-.1 1.3-.1 2.1-.2-.2.9-.5 1.6-.7 2.4-1 3.6-2.1 7.2-3.1 10.8-.8 2.6-2.6 4.3-4.8 5.8-5.5 3.8-11.7 6.2-18.1 7.9-3.3.9-6.7 1.6-10 2.3-2.4.4-4.9.7-7.3.8-3.1.2-6.2.3-9.2.2-3.2-.2-6.3-.6-9.5-1.1-4.6-.7-9-2.1-13.3-3.8-4.9-2-9.5-4.8-13.3-8.6-4.2-4.2-6.8-9.3-7.8-15.1-.1-.8-.1-1.5-.2-2.3 0-.2-.2-.4-.2-.7v-3.2c.1-.9.3-1.7.4-2.6.2-3.9 1.4-7.5 3.1-11 2.1-4.5 4.9-8.5 8.2-12.2 3.5-3.9 7.3-7.3 11.6-10.4 5.5-3.9 11.4-7.2 17.6-9.8C50 8.8 56.9 6.6 64 5.3c3.2-.6 6.4-1.1 9.6-1.5 2.7-.4 5.5-.5 8.2-.8 1.6-.1 3.3-.1 4.9-.2.2 0 .4-.2.5-.2h7.7zm262.8 32.2c-.2.8-.4 1.7-.6 2.6-1 4.9-3.2 9.1-6.3 13-4 5.1-8.9 9.1-14.5 12.4-7.4 4.4-15.4 7.2-23.7 9.2-3.9 1-7.9 1.6-11.8 2.3-2.3.4-4.5.5-6.9.6-3.3.2-6.6.4-9.9.4-3.3-.1-6.7-.4-10-.7-6.7-.5-13.2-1.9-19.7-3.6-6.5-1.7-12.8-3.8-19-6.4-5.1-2.2-10.1-4.6-15.1-7-2.1-1.1-4.2-2.3-6.4-3.5-.3-.2-.6-.3-1-.5l-1.5 4.5c-.5 1.4-1 2.7-1.3 4.1-.2.8-.7 1-1.3 1.1-1.9.3-3.8.6-5.8 1 .5-1.5 1-3 1.4-4.5 2.7-8.4 5.4-16.7 8-25.2.2-.5.3-.8.9-.8 2.2-.2 4.4-.5 6.6-.7 2-.2 4.1-.2 6.1-.2 1.3.1 2.5.3 3.6.7 3 1.2 3.7 3.1 2.8 6.3-.7 2.6-2.6 4.4-4.6 6.1-2.3 1.8-4.8 3-7.6 4-.3.1-.5.2-1.1.4 1.2.7 2.1 1.3 3 1.7 9.5 5.1 19.4 9.4 29.7 12.4 5.2 1.5 10.4 2.9 15.7 3.6 3 .4 6.1.9 9.1 1.1 4.3.3 8.6.5 12.9.4 3.8-.1 7.6-.7 11.3-1.3 5.5-.8 10.9-2.4 16.1-4.5 5.3-2.2 10.3-5 14.7-8.7 3.6-3 6.7-6.4 9.1-10.5 2-3.4 3.2-7.1 3.4-11.1.4-5.9-1.5-11-5.4-15.4-3.9-4.5-9-7.1-14.6-8.9-3.3-1.1-6.6-1.7-10.1-2.1-4.4-.6-8.8-.7-13.1-.5-5.2.2-10.3.9-15.4 1.8-12.1 2.1-23.8 5.8-35.2 10.4-7.3 3-14.5 6.4-21.8 9.5-.7.3-1.5.4-2.4.4-2.7.3-5.4.5-8 .8-1.4.1-2.8.4-4.3.5 1.6-.7 3.2-1.5 4.7-2.1 5.4-2.4 10.8-4.8 16.2-7.1 11.6-4.9 23.2-9.4 35.4-12.6 5.1-1.3 10.3-2.3 15.6-3.3 3-.5 6-.8 9-1.1 2.9-.3 5.8-.4 8.7-.6 1.8-.1 3.5-.2 5.3-.2 3.8.2 7.6.4 11.4.7 4.7.4 9.3 1.4 13.8 2.9 5.1 1.6 9.9 4 14.1 7.4 4.4 3.7 7.5 8.2 8.8 13.9.2.8.3 1.5.5 2.3.5 1.5.5 3.1.5 4.6zM215.2 46.7c2.5-.3 4.7-.8 6.7-2 1.4-.9 2.6-2 3.2-3.7.7-2 .1-3.3-2-3.6-1.5-.2-3.1-.1-4.6-.1-.2 0-.5.4-.6.7-.8 2.3-1.5 4.6-2.3 6.9-.1.5-.2 1.1-.4 1.8z" class="st0"/><path d="M134.1 53c-.6 2.1-1.3 4.3-1.8 6.4-1.5 5.5-3 11.1-4.6 16.6-.1.4-.5.7-.8.8-1.9.4-3.8.7-5.7 1-.2 0-.4 0-.7-.1.7-2.6 1.4-5 2.1-7.5 2.4-8.6 4.8-17.3 7.2-26 .6-2.2.7-2.1 3-2.3 1.5-.1 3-.3 4.5-.5.7-.1.7.3.9.7 1.1 2.7 2.2 5.5 3.3 8.3l4.5 10.7c.1.2.2.4.4.7.8-2.6 1.5-5.1 2.2-7.5 1.3-4.5 2.6-9.1 3.9-13.6.1-.4.5-1 .9-1 1.8-.3 3.6-.4 5.5-.6h1c-.6 2.1-1.1 4.1-1.7 6-2.6 8.9-5.2 17.7-7.7 26.6-.2.8-.6 1.2-1.5 1.3-1.7.2-3.3.5-4.9.9-.8.2-1-.3-1.1-.8-2.4-5.7-4.7-11.4-7-17.1-.4-1-.8-2.1-1.3-3.1-.5.1-.6.1-.6.1zm20.2 19.1c1.4-4.9 2.9-9.8 4.2-14.6 1.7-6 3.5-11.9 5.2-17.9.2-.8.7-.8 1.3-.9.9-.1 1.7-.3 2.6-.3 2.3-.1 4.5-.1 6.7 0 1.4.1 2.7.6 4 1 3.5 1.2 4.4 4.7 4 7.4-.4 3.3-1.3 6.5-2.6 9.7-2 5-5.5 8.6-10.1 11.1-4.2 2.3-8.7 3.5-13.4 4.2-.5.1-1.2.1-1.9.3zm8.4-6.3c3.2-.6 5.7-1.9 7.4-4.2 3.2-4.2 4.8-8.9 4.9-14.2.1-3-1.9-4.4-4.5-4.5-.7-.1-1.1.2-1.4 1-1.7 6-3.5 12-5.3 17.9-.3 1.3-.7 2.6-1.1 4zm-42.5-6.1c-.5 1.7-1 3.4-1.5 5-.1.2-.5.5-.9.5-2.4.4-4.8.7-7.2 1-.5.1-1.1.1-1.7.2-.3.1-.7.4-.7.6-.7 2.6-1.4 5.2-2.2 8 4.1-.7 8.1-1.3 12.3-2-.5 1.8-1 3.3-1.4 4.9-.2 1-1.1.7-1.6.7-5.8 1-11.7 2-17.6 2.9-.2.1-.4.1-.8.2.5-2 1-3.9 1.5-5.8 2.7-10.1 5.4-20.1 8.1-30.2.2-.7.5-1 1.1-1.1l6-.6 6.3-.7 6-.6c.2 0 .4.1.7.1-.5 1.6-.8 3.2-1.4 4.7-.1.3-.9.5-1.4.5-2.6.4-5.2.7-7.9 1-.7.1-1.4.2-2.1.2-.6 0-.9.2-1 .7-1 3.6-1.9 7.1-2.9 10.7 0 .1 0 .1.1.4 3.4-.3 6.6-.8 10.2-1.3zm82.7-11.2c-.5 1.5-.9 2.9-1.4 4.2-.1.2-.4.4-.6.5-2.6.4-5.2.8-7.7 1.1-.5.1-1 .1-1.5.2-.2.1-.6.3-.7.5-.7 2.1-1.3 4.2-2 6.4-.1.1 0 .2.1.5 3.9-.7 7.9-1.3 12-2-.3 1-.7 1.8-.8 2.7-.2 1.7-1.2 2.2-2.7 2.4-4.9.7-9.7 1.6-14.5 2.4-1 .2-2.1.3-3.2.5 1.1-3.7 2.2-7.2 3.3-10.7 2-6.7 4.1-13.3 6.1-20 .3-1 .8-1.3 1.7-1.3 2.1-.2 4.2-.5 6.3-.7 1.4-.2 2.8-.2 4.2-.4 2.1-.2 4.2-.5 6.3-.7.5-.1 1 0 1.6 0-.5 1.4-.9 2.7-1.4 4.1-.1.2-.4.5-.5.5-2.4.3-4.8.5-7.3.8-1.4.2-2.7.4-4.1.6-.2.1-.5.2-.6.5-1 3-1.9 6.1-2.9 9.4 3.6-.6 6.8-1.1 10.3-1.5zm71.4-9.6c-.7.3-1.1.5-1.5.7-.5.2-1 .4-1.3-.2-.3-.5-.5-1.3.1-1.6 3.9-2.2 5.1-6.2 6.6-10 1.2-3 2.3-6.1 4.2-8.8.8-1.1 1.8-2 2.9-2.8.8-.7 2-.8 3-.7.2 0 .4.1.5.2 1 .7.7 3-.4 3.5-.2.1-.5.2-.8.1-1.4-.3-2.3-.1-2.9 1.1-1.4 2.4-2.7 4.9-3.8 7.5-1.1 2.7-2 5.5-3 8.3-.1.3-.1.7-.3 1.3 1-.2 1.7-.4 2.4-.7 2.4-.8 4.5-2.1 6.1-4.2.4-.5 1.1-.9 1.7-1.1 1.1-.4 1.7.2 1.4 1.3-.2.9-.6 1.8-.8 2.7-.7 2.1-1.3 4.2-1.9 6.4-.2.7-.1 1.2.5 1.7s.5 1.2-.2 1.5c-.9.4-1.8.7-2.7.8-1 .1-1.5-.6-1.2-1.6.6-2.2 1.3-4.4 1.9-6.6 0-.1 0-.2.1-.5-2.7 1.1-5.2 2.1-7.7 3.2 2.7.6 3.9 2.2 4.4 4.8.3 2 0 3.8-.5 5.7-1.1 4.4-3.2 8.4-6.3 11.7-.7.7-1.5 1.3-2.3 1.7-2.1 1.1-3.2.2-3.4-2.1-.2-3.5.5-6.9 1.4-10.3 1.1-3.9 2.4-7.9 3.6-11.8 0-.3.1-.6.2-1.2zm4.6 7.7c-.2-.7-.4-2-.9-3-.2-.5-1.1-.8-1.7-1-.2-.1-.7.7-.8 1.1-.8 2.7-1.6 5.5-2.3 8.3-.5 2.3-1 4.6-1.3 7-.1.6.1 1.5.5 1.8.7.4 1.4-.2 1.7-.7 2.9-4 4.4-8.3 4.8-13.5zm51.3-13.7c-1 .9-1.9 1.9-3 2.7-.8.6-1.8 1.1-2.7 1.2-2.2.4-3-1.1-2.9-3 .1-2.1 1-4.1 1.7-6 .3-.9.5-1.8.6-2.7.1-.9.7-1.2 1.4-1.3.7-.1 1.3-.1 2-.1-.1.7.1 1.3-.1 1.9-.4 1.2-.9 2.3-1.4 3.5-.4 1-.8 2-1 3-.1.5.1 1.1.4 1.5.2.2 1 .1 1.3-.2 2.4-1.5 4-3.9 5.3-6.5.4-.7.7-1.4 1-2.1.4-1.3 1.5-1.7 2.6-2 .6-.1 1 .4.8 1.1-.8 2.5-1.8 5-2.6 7.6-.5 1.5-.9 3-1.3 4.5.4.1.5 0 .7.1.3.2.8.4.8.7.1.3-.2.7-.5 1-.1.1-.2.2-.4.2-1.4.1-1.6 1.1-2 2.2-1.2 3.8-2.6 7.6-4.9 10.8-1.5 2.1-3.2 3.9-5.8 4.5-2 .4-3.5-.6-3.8-2.6-.5-3 .7-5.5 2.1-7.9 2.4-3.9 5.8-6.6 10.1-8.1.3-.1.6-.5.7-.8.4-1 .7-2.1 1-3.2.1.1 0 .1-.1 0zm-1.9 6.6c-.4.1-.7.2-.9.4-2.4 1.3-4.5 3-6 5.4-1.1 1.8-1.9 3.6-1.8 5.8.1 1.5 1 2.1 2.3 1.3.7-.4 1.4-1.1 1.8-1.7 2.3-3.2 3.3-6.9 4.5-10.5.1-.3.1-.4.1-.7zM246.2 53c-1.8-.1-2.9-1.8-2.2-2.8.3-.5 1-1 1.4-1 2.6-.1 4.2-1.7 4.9-3.9 1.7-4.8 3.2-9.7 4.7-14.6.1-.3.1-.7.1-1 .2-1-.4-1.3-1.1-1.4-.5-.1-1.3-.5-1.3-.8 0-.5.4-1.1.8-1.4 1.4-1.1 3.2-1.4 4.9-1.4 1.3 0 1.8.5 1.4 1.9-1.1 4.1-2.3 8.1-3.6 12.1-.8 2.6-1.7 5.1-2.6 7.6-.9 2.2-2.1 4.3-4.4 5.5-1 .5-2 .8-3 1.2zm50.2-19.9c.8-.8 1.4-1.5 2-2.2 1.1-1 2.2-1.8 3.8-1.9 1.8-.2 2.6 1.1 2.6 2.7.1 2.2-.7 4.2-1.3 6.2-.3 1.1-.5 2.2-.7 3.3-.1.4.1 1 .4 1.3.4.8.1 1.3-.6 1.5-.8.4-1.6.6-2.4 0-.8-.7-.8-1.6-.6-2.5.6-2.3 1.3-4.5 1.8-6.9.2-.7.1-1.7-.2-2.1-.6-.6-1.4.1-2.1.5-2.1 1.5-3.4 3.7-4.5 6-.6 1.3-1.1 2.6-1.5 3.9-.4 1-1.5 2-2.6 1.8-.6-.1-.9-.4-.7-1.1.8-2.2 1.4-4.5 2.3-6.7.7-2 1.3-4 1.1-6.1-.1-.9.5-1.4 1.4-1.5.8-.1 1.4.2 1.5 1.1.4.8.3 1.7.3 2.7zm-34 5.6c.6-.5 1.4-1.1 2.1-1.7 1.1-1 2.3-1.8 3.9-1.8 1.3 0 2.1.6 2.3 1.9.1 1 .1 2.1-.1 3.2-.5 2.2-1.1 4.4-1.7 6.6-.1.5 0 1.2.2 1.7.4 1.1.3 1.5-.8 1.9-1.8.6-2.9-.3-2.6-1.8.3-1.7.7-3.3 1.1-4.9.2-1.1.7-2.1.9-3.2.1-.5.1-1.4-.2-1.5-.5-.2-1.4-.3-1.7 0-1.1.9-2.3 1.9-3.1 3.1-1.5 2.1-2.7 4.4-3.3 6.9-.3 1.2-1.4 2-2.6 2.1-.5 0-.9-.1-.7-.8.4-1.4.9-2.7 1.3-4.1.7-2.2 1.4-4.4 2-6.6.2-.7.1-1.4.1-2.1-.1-.9.4-1.5 1.4-1.7.7-.2 1.4.3 1.5 1v1.8z" class="st0"/><path d="M315.8 31.4c-.5.3-.8.5-1.1.6-.6.3-1.2.5-1.6-.3-.4-.8-.2-1.3.5-1.7 1.9-1 3-2.6 3.9-4.7-.5.1-.9.2-1.3.2-.3 0-.7-.1-.8-.2-.2-.2-.2-.7-.1-1 .2-.8 1.1-1.2 1.8-1.3 1.1-.1 1.7-.7 1.9-1.7.2-.7.5-1.4.7-2 .4-1.1 2-1.9 3-1.6.1.1.3.5.2.7-.3.9-.7 1.8-1 2.7-.1.2-.2.5-.3.8.4 0 .8-.1 1.1 0 .4.1 1.1.2 1.2.5.2.7 0 1.4-.7 1.7-.7.2-1.4.4-2 .6-.4.1-.7.4-.8.7-1.4 3.6-2.3 7.2-2.9 11-.2 1.1-.2 2.2-.1 3.3.1.5.5 1 .7 1.5.3.6.8 1.1.2 1.8-.5.6-1.3 1-2.1.7-1.2-.4-2-1.6-2-3.2-.2-2.9.7-5.5 1.4-8.2.1-.2.1-.5.2-.9zm-5.2-3.7c1.3 0 1.7.4 1.4 1.4-.7 2.4-1.5 4.9-2.2 7.3-.4 1.1-.7 2.2.4 3.2.2.1.1.8-.1 1.1-.9.8-2 1.1-3.2 1-1-.1-1.3-.7-1.1-1.7.4-1.4.8-2.9 1.2-4.3.4-1.5.8-2.9 1.3-4.4.1-.4 0-.8-.1-1.2-.4-1-.4-1.4.6-1.8.6-.3 1.4-.5 1.8-.6zm3-4.9c0 1.2-.9 2.3-2 2.6-.8.2-1.5-.2-1.6-1.1-.2-1.5.8-2.9 2.4-3.1.7 0 1.2.6 1.2 1.6zm-23 3.9c0 1-.8 2.2-1.7 2.4-.5.1-1.4.1-1.5-.2-.3-.6-.5-1.4-.2-2 .2-.7.9-1.2 1.5-1.5 1.1-.6 1.9.1 1.9 1.3z" class="st0"/></svg>