<svg xmlns="http://www.w3.org/2000/svg" id="Layer_1" viewBox="0 0 470.1 176.1"><style>.st0{fill:#FFFFFF;}</style><path d="M7.6 7.7h29.1c0 3.5.1 6.6-.1 9.8 0 .5-1.2 1.3-1.9 1.4-2.1.2-4.3.1-6.9.1.6 1 .8 1.6 1.2 2 4 4 8.1 8 12.1 12.2 1.5 1.6 2.6 1.5 4 0 1.5-1.7 3.1-3.2 4.6-4.8 1.2-1.4 2.2-1.1 3.3.1 1.5 1.7 3 3.3 4.7 4.8 1.1 1 1.2 1.8 0 3-1.8 1.7-3.5 3.5-5.2 5.2-.8.8-1.5 1.6-.4 2.6.9.9 1.7 2.6 3.5 1.3 4.7-3.2 9.9-5.5 15.4-6.1 5.6-.6 11.5-.3 17.1.3 5.9.6 11.1 3.2 15.9 6.8 1.4 1 2.1.1 3-.8 7.5-7.5 15-15 22.5-22.6l3.8-3.8c-1.6-.1-2.4-.3-3.2-.3-4.8 0-9.6-.1-14.4 0-1.9 0-2.5-.6-2.4-2.5.1-2.8 0-5.6 0-8.5h39.4v39.9h-11.1V27.6c-.9.5-1.5.8-1.9 1.2-8.2 8.2-16.3 16.4-24.6 24.6-1.4 1.3-1.5 2.3-.4 3.9 6.7 9.7 8.7 20.6 6.9 32.1-1.1 6.7-3.9 12.8-8.1 18.3-6.5 8.5-14.9 13.9-25.4 16.2-1.5.3-2.4 1-2.3 2.7.1 3.5.1 7 0 10.6 0 1.8.6 2.6 2.5 2.6 4.3-.1 8.6.1 13-.1 2-.1 2.5.7 2.4 2.5-.1 2.1-.1 4.2 0 6.2.1 1.9-.7 2.5-2.5 2.4-4.2-.1-8.3 0-12.5-.1-2.1-.1-3 .5-2.9 2.8.2 4.9.1 9.9.1 15h-11v-13.4c0-4.7.8-4.3-4.4-4.3-3.8 0-7.5-.1-11.3 0-1.8 0-2.4-.7-2.4-2.4.1-2.2.1-4.3 0-6.5-.1-1.7.6-2.3 2.2-2.2 4.4.1 8.8-.1 13.2.1 2 0 2.7-.6 2.7-2.6-.1-3.4-.1-6.9 0-10.3 0-1.4-.3-2.1-1.9-2.3-14.6-2.5-25.6-10.1-32.3-23.4-4.2-8.4-5.7-17.2-4-26.6 1.3-6.9 3.8-13 8-18.6 1.1-1.4 1.1-2.5-.3-3.6-1.4-1.2-2.2-.3-3.1.7-1.9 2-4 3.9-5.9 5.9-1.1 1.1-1.8 1.2-2.9 0-1.6-1.7-3.4-3.4-5.1-5-1.1-1-1.2-1.9 0-2.9 2.7-2.4 5.3-4.8 7.7-7-5.6-6.1-10.7-11.2-16.3-16.9 0 2.6-.1 4.7 0 6.8.1 1.8-.6 2.4-2.4 2.4-3-.1-5.9 0-8.9.1.1-9.6.1-19.2.1-28.8zm71.6 44c-16.7-.3-30.1 13.5-30 29.9 0 16.5 13.4 29.6 29.7 29.9 16.6.2 30.2-13.9 30.2-29.9 0-15.8-13.3-30.3-29.9-29.9zm211.7 28.1c.3-.4.6-.8.8-1.2 1-2.2 2.2-2.8 4.6-1.4 3.1 1.9 6.6 2.2 10.1 1 1.8-.6 3.4-1.6 3.3-3.8-.1-2.1-1.7-2.8-3.5-3-1.1-.1-2.2 0-3.3 0-2.3.1-4.6.4-6.9.4-2 0-3.8-.9-4.3-3.1s.2-3.9 2.3-4.9c.5-.3 1-.6 1.7-1-.6-.5-1-1-1.4-1.4-5.8-4-5.8-15.3 2.5-18.6 2.4-1 5.5-.8 8.2-.5 2.4.3 4.6 1.7 5.9-2.3 1.5 1.4 2.5 2.4 3.9 3.7-3.4 1.3-3.1 3.1-2.1 5.4 2.5 6.2-1.5 14.3-10.3 15-1.9.1-3.7.6-5.6 1-.4.1-.7.9-1.1 1.3.4.3.9.8 1.3.8 2.1 0 4.1-.2 6.2-.3 1.2-.1 2.4-.2 3.6-.1 4.4.3 6.9 2 7.6 4.9 1 4.4-.3 7.7-4.3 9.8-5.7 3.1-13 2.3-18.6-1.2-.2.1-.3-.2-.6-.5zm16.9-26.7c.1-3.9-2.3-6.8-5.7-6.9-3.7-.1-6.4 2.6-6.4 6.4-.1 4.2 2.3 7 6 7 3.7.2 6-2.4 6.1-6.5zm-115.2 55.3h-16c-1.5 0-1.5 1.1-1.5 2.2 0 4.8-.1 9.6 0 14.4 0 2.1-.6 2.9-2.7 2.8-2 0-2.8-.6-2.8-2.7.1-11.7.1-23.4 0-35 0-2.2.9-2.7 2.9-2.7 1.9 0 2.7.6 2.7 2.6-.1 3.8 0 7.5 0 11.3 0 1.8.6 2.5 2.5 2.5 4.9-.1 9.7 0 14.9 0 .1-1 .3-2 .3-2.9V89.4c0-2.4 1.7-1.8 3.1-1.9 1.3-.1 2.5-.1 2.5 1.9-.1 12.2-.1 24.3 0 36.5 0 2.2-1.4 1.9-2.7 2-1.5 0-2.9.2-2.9-2.1.1-4.8 0-9.6 0-14.4-.2-1.1-.3-2-.3-3zm208.2-64.9v-9c0-4.7.1-4.8 5.3-3.8V69c0 3.1-2.1 4.2-5 2.7-.7-.3-1.8-.5-2.5-.2-8.7 3.8-17.6-1.8-18.1-11.3-.3-5.4.5-10.3 4.5-14.3 4.1-4.1 8.6-5.1 14-3 .4.1.8.2 1.8.6zm-.1 13.9v-6.5c0-1.8-.7-3-2.3-3.8-4-2-9.3-.2-11 4.4-.9 2.5-1.2 5.4-1.1 8.1.2 6.5 5.9 10 12 7.8 1.8-.7 2.5-1.7 2.5-3.6-.1-2.1-.1-4.3-.1-6.4zm16.8 42.5c4.2-2.5 8.2-2.8 12.3-1.1 6.7 2.8 9.3 11 7.9 16.9-.6 2.6-1.5 5.2-2.9 7.4-3.3 5.1-10.5 6.6-16.7 3.7-1.2-.6-1.8-.4-2.7.4-.6.6-1.7.9-2.5.8-.4-.1-.9-1.4-.9-2.1-.1-12.4 0-24.8-.1-37.2 0-2.2.8-2.8 3-2.9 2.2 0 2.5.9 2.4 2.7.1 3.7.2 7.3.2 11.4zm0 13.1c0 2.3-.2 4.6.1 6.9.1 1 .8 2.3 1.6 2.8 5.1 3.1 10.8.6 12.6-5.4 1.9-6.4-.1-13.5-7.2-15.2-3.7-.9-7.1 1.4-7.1 5.1v5.8zm-106.4-12.5c1.4-.7 2.5-1.4 3.6-1.9 5.3-2.5 11.3-.5 13.6 4.6.8 1.8 1.2 3.8 1.2 5.8.2 5.3 0 10.7.1 16.1.1 2.4-1.3 2.5-3 2.6-1.9.1-2.6-.6-2.6-2.7.1-5.4.1-10.9 0-16.3 0-3.6-1.5-5.6-4.6-6.7-2.1-.7-6.3.8-7.6 2.9-.6.9-.8 2.1-.8 3.2-.1 5.6-.1 11.2 0 16.8 0 2.1-.6 2.8-2.8 2.8-2.2 0-2.4-1.1-2.4-2.9v-36c0-2.8 1.5-3.9 4-2.8.5.2 1 1.4 1 2.1.1 3.1 0 6.2.1 9.3 0 1 .1 1.9.2 3.1zm13.2-42.9c-1.3 3.8 1.9 9.5 6 10.1 3 .5 6.1.6 8.8-1.2 1.7-1.1 2.1.3 2.9 1.3.9 1.1.7 1.9-.5 2.5-7.4 3.9-17.5 3.6-21.9-5.8-4.1-8.8.2-20.7 10.4-22.5 8.3-1.4 16.4 4.1 15.5 13.9-.1 1.6-1 1.7-2.2 1.7h-19zm-.2-3.9h15.7c.7-4-2.5-6.8-6.1-7.3-3.7-.5-8.7 1.3-9.6 7.3zm93.6 3.9c-1.2 7.5 5 12.2 12.5 10 .4-.1.8-.3 1.1-.4 3.1-1.3 3.1-1.3 4.6 2.1-6 5.2-19.6 5.4-23.3-5.8-3.1-9.4.5-17 7.4-20.5 6.1-3 14.3-.6 17.4 5.4 1.1 2.1 1.2 4.7 1.5 7.1.2 1.5-.7 2.2-2.4 2.2-5.4-.1-10.7 0-16.1 0-.8-.1-1.7-.1-2.7-.1zm-.1-3.9h15.6c.9-3.8-3.2-7.3-7.3-7.4-3.8-.1-8.9 3.2-8.3 7.4zM406.4 128c-3.5.6-5.6-.9-7.5-3-2.8 2.6-6.1 3.5-9.8 3.3-3.4-.2-6.1-1.8-7.3-4.8-1.2-3.1-1.3-6.5 1-9.3 4-4.7 9.2-6.2 15.3-4.8.7-2.4-.1-4.3-1.9-5.8-2.2-1.8-7-1.3-11.5 1.2-.7-1.3-1.3-2.6-2-3.8 4.5-4.1 14-4.3 18.3-.3 2.4 2.1 2.8 5.1 3 8.1.2 4-.1 8 .1 12 .1 1.5.8 3 1.3 4.4.3.7.6 1.6 1 2.8zm-7.9-10.7c0-.9.1-1.8-.1-2.6-.1-.5-.8-1.4-1.1-1.4-2.6.2-5.4.3-7.8 1.1-2.5.9-3.8 4.7-3 6.8.8 2.1 3.5 3.4 6.2 3 4-.7 5.8-2.9 5.8-6.9zm-177.9-3.9c-2.9 0-5.8.1-8.6 0-2.1-.1-2.5 1-2.1 2.7 1.5 7 8.3 10.1 14.6 6.5 2.2-1.3 2.7-.3 3.5 1.2 1.1 2-.5 2.3-1.7 2.9-7 3.2-14.7 1.8-18.8-3.2-6.3-7.6-3.8-21.2 5.6-24.8 8.4-3.2 19.4 1.1 18.3 13-.1 1.3-.6 1.8-1.9 1.8-2.9-.1-5.9-.1-8.9-.1zm-10.4-4.1H226c-.1-4.9-3.6-7.2-7.5-7.3-3.5-.2-8.2 2.6-8.3 7.3zm42.8 0c.4-2.5-.3-4.4-2.2-5.8-2.4-1.8-6.5-1.4-11.6 1.1-.6-1.2-1.3-2.5-1.9-3.7 4.5-4.1 13.6-4.3 18-.5 2.6 2.2 3.1 5.3 3.2 8.4.2 3.9-.1 7.8.1 11.7.1 1.5.8 3 1.3 4.5.3.9.6 1.8.9 2.9-3.3.6-5.5-.6-7.3-2.9-2.8 2.4-6.1 3.3-9.7 3.2-3.6-.1-6.1-1.8-7.5-4.9-1.4-3.1-1.2-6.4 1.1-9.2 3.8-4.6 8.8-6.3 14.7-4.9.2.1.4.1.9.1zm.5 7.7c-.3-1.2-.3-3.1-1.1-3.6-3.4-2.1-10.2.8-11.5 4.6-.9 2.7.4 5.1 3.1 6 4.9 1.4 9.2-1.9 9.5-7zm-29.2-63.5c.2-4.4-2-7-6.2-6.8-2 .1-4.2.6-6 1.4-1.8.8-2.1 0-2.8-1.2-.9-1.4-.9-2.5.6-3.1 2.1-.8 4.2-1.7 6.4-1.9 6.1-.4 10.7 1.1 12.7 6.6.5 1.3.5 2.8.6 4.2.1 3.7-.2 7.4.1 11 .2 2 1.2 3.8 1.8 5.8l.6 2.4c-.8.2-1.7.7-2.4.5-1.3-.3-2.8-.8-3.5-1.7-1.2-1.4-1.9-1-3.1-.2-4.7 3.3-10.7 2.9-14-.7-4.3-4.6-2.3-12.4 4-15 2.7-1.3 5.5-2.5 11.2-1.3zm.3 7.9c0-3.8 0-3.8-3-4.4-2.7-.5-7.6 1.7-8.8 4.1-1.2 2.3-.6 5.7 1.2 6.6 4.9 2.5 10.6-.9 10.6-6.3zm-49.9-24.8v3c0 10-.1 20 .1 30 0 2.3-1 2.5-2.7 2.4-1.6-.1-3.1.2-3.1-2.4.1-9.9.1-19.8.1-29.7v-3.2c-3.4 0-6.6-.1-9.8 0-2 .1-3-.6-3-2.7 0-2.2 1.1-2.6 3-2.6 8.7.1 17.4.1 26.1 0 1.9 0 2.7.5 2.8 2.5 0 2.1-.7 2.9-2.8 2.8-3.4-.2-6.9-.1-10.7-.1zm63.3 6.2c3-1.3 4.2.2 4.9 2.5 2-1.1 3.8-2.5 5.9-3 6.7-1.8 12 1.4 12.5 8.8.5 6.8.1 13.6.1 20.6-.8.1-1.4.3-2.1.3-3.1.1-3.3-.1-3.3-3.1 0-5.6 0-11.2-.1-16.8-.1-3.9-2.2-5.8-5.9-5.7-4.1.1-6.6 2.4-6.6 6.1 0 5.6-.1 11.2 0 16.8.1 2.4-1.1 2.7-3.1 2.8-2.3.1-2.4-1.1-2.3-2.8.1-8.9 0-17.7 0-26.5zm113.2 0c3.2-1.6 4 .9 5.2 2.8 3.4-3.5 7.3-4.7 11.9-3.3 3.2 1 5.1 3.3 5.7 6.4.5 3 .7 6 .7 9 .1 4 0 8 .1 12 .1 2.5-1.6 2.1-3.1 2.2-1.5.1-2.6-.1-2.5-2.1.1-5.4.1-10.9 0-16.3 0-2.5-.2-5-2.8-6.4-2.8-1.5-5.4-.7-7.9.9-1.5.9-2.3 2.2-2.3 4.1.1 5.8-.1 11.7.1 17.5 0 2-.8 2.4-2.5 2.4s-2.6-.3-2.6-2.4c.1-8.9 0-17.9 0-26.8zm8.7 79.8c1.1.1 2 .1 2.8.1h12.2c3 0 3.1.2 3 3.1-.1 1.4-.7 1.8-1.9 1.8h-19.9c-1.4 0-2-.5-2-2 0-12.1.1-24.2 0-36.2 0-2.5 1.7-2 3.1-2.1 1.6-.1 2.7.1 2.7 2.2-.1 10.1 0 20.2 0 30.2v2.9zM275.8 73c-2.2-.5-4.5-1-6.7-1.7-2.7-.8-1.6-2.4-1-4.1.8-2 1.8-.9 3-.5 1.8.6 3.6 1.1 5.5 1.2 1.6.2 3.3-.4 3.8-2.2.6-1.9.2-3.8-1.5-4.9-1.9-1.2-4-2.2-6-3.3-3.1-1.8-5.8-3.9-5.7-8.1.1-3.3 2-5.9 5.1-7 3.8-1.3 7.4-.6 11 .8 2.2.9.8 2.5.6 3.7-.3 1.5-1.3 1-2.4.6-1.7-.6-3.5-1.2-5.3-1.1-1.1.1-2.8 1.2-3 2.1-.3 1.2.3 3.2 1.2 4 1.7 1.4 4.1 2 6 3.2 2.8 1.6 5.3 3.4 5.7 7.1.7 6.3-3.7 9.1-8.1 9.8-.7.1-1.4.1-2.2.1v.3zm24.2 50.4c1 4.2.7 4.6-3.2 4.8-3.1.1-6.3.4-8.7-2.1-1.9-2-2.9-4.4-2.9-7.1 0-4.9.1-9.7-.1-14.6 0-.8-.8-2.1-1.3-2.2-1.9-.2-1.9-1.3-1.9-2.7 0-1.7 1.2-1.3 2.2-1.4.2 0 .5-.1 1.1-.2 0-1.4-.1-2.9.1-4.4.1-.7.7-1.6 1.3-1.9 3.9-1.9 4.2-1.7 4.2 2.6v.2c.1 4.1-.5 3.6 3.8 3.6h3.7c.9 3.7.7 3.9-2.8 3.9-5.3 0-4.6-.3-4.7 4.6V118c.1 4.5 2.1 6.1 6.6 5.6.7 0 1.6-.1 2.6-.2zm-32.8-19v-16c0-1.7.4-2.5 2.3-2.4 1.7.1 2.9.1 2.9 2.4-.1 9.6 0 19.2 0 28.7 0 3.1.8 5.6 4.1 6.8.6.2.8 2.1.8 3.3 0 .4-1.2 1.1-1.8 1.1-4.6-.3-8.3-2.6-8.2-8v-.5c-.1-5.2-.1-10.3-.1-15.4zM192 45.5c2.1-1.2 4.1-2.4 6.2-3.4.7-.3 1.6-.4 2.3-.3 1.1.2 3.1.5 3.2.9.1 1.2-.5 2.6-1 3.8-.1.3-1 .5-1.4.4-5.5-1-9.2 1.8-9.4 7.6-.2 4.9 0 9.8-.1 14.6 0 2.5-2.1 3.8-4.2 2.6-.4-.2-.7-1-.7-1.6 0-8.7 0-17.4-.1-26.2 0-1.9 1.2-1.7 2.4-1.7s2.7-.4 2.6 1.7c0 .7.2 1.3.2 1.6zm268.5 1.6c-6.3-1.7-10.1 1-10.3 7.5-.1 5.1-.1 10.2 0 15.3 0 1.9-1.2 2.1-2.5 1.9-1.1-.1-2.8.7-2.8-1.5V42.8c3.6-1.3 4.6-.8 5.9 2.7 3.3-3.4 7-5 11.8-3-.8 1.7-1.5 3.2-2.1 4.6zM209.6 139c2-.5 2.7.1 2.7 1.7v11.2c0 .5-.4 1.1-.6 1.6-.5-.3-1.1-.5-1.5-.9-1.9-2.4-3.8-4.8-6.2-7.1v7.8c-1.7.5-2.8.7-2.8-1.4v-11.5c0-.5.5-1.1.7-1.6.5.3 1.1.5 1.5.9 1.9 2.3 3.8 4.8 6.2 7V139zm137.9 0c1.8-.5 2.6.2 2.6 1.7 0 3.7.1 7.4-.1 11 0 .7-1 1.3-1.5 2-.4-.6-.8-1.3-1.1-1.9-.2-.4 0-.9 0-1.4 0-3.2 0-3-3.1-3.2-2.2-.1-3.1.5-2.8 2.8.1.8.2 1.7-.1 2.4-.2.6-1 1-1.5 1.4-.4-.5-1-1-1-1.5-.1-4-.1-8 0-12 0-.5.7-.9 1.1-1.4.5.4 1.2.7 1.4 1.3.3.6.2 1.4.1 2.1-.2 2 .7 2.5 2.5 2.4 3.3-.1 3.3 0 3.4-3.4 0-.8.1-1.5.1-2.3zm55.5 7.1c-.3-4.6 2.8-8.2 7.5-7.4.9.1 1.8.5 2.6 1 2.5 1.6 3.5 6.6 2.2 10-1.1 2.8-3.7 4.4-7.1 4.1-3.3-.3-5.2-3-5.2-7.7zm2.5-.1c.1 0 .2.1.3.1 0 .6.1 1.3.1 1.9.1 2 1.2 3.4 3.2 3.5 2 0 3.5-1.1 3.7-3.3.1-1.6.3-3.3-.2-4.7-.4-1.1-1.6-2.2-2.7-2.6-.8-.3-2.4.4-3 1.2-.8 1.1-.9 2.6-1.4 3.9zm-53.3.7c0-3.5.9-6.2 3.8-7.6 2.1-.9 4.3-.9 6.4.5 3 2.1 3.8 7.8 1.5 11.3-1.9 2.9-5.7 3.9-8.6 2.1-2.5-1.5-2.9-4.1-3.1-6.3zm2.9-.7c0 .6-.1 1.3 0 1.9.3 1.8 1.1 3.2 3 3.5 1.9.3 3.3-.8 3.7-2.6.4-1.6.5-3.3.3-4.9-.3-1.9-1.6-3.5-3.8-3.2-2 .3-3 1.8-3.3 3.8 0 .6.1 1.1.1 1.5zm-37 1.3c-.1 1.8-.8 4.4-3.6 5.9-2.1 1.1-4.3 1.1-6.4-.2-2.8-1.8-3.8-6.3-2.3-10.2 1.2-3.2 3.8-4.6 7.5-4 3 .4 4.9 3.2 4.8 8.5zm-2.7-1.7c0-.3 0-1-.2-1.7-.5-1.6-1.5-3-3.2-3-1 0-2.3.7-3 1.5-1.6 1.9-1.6 6.1.1 7.8.7.8 2.2 1.2 3.3 1.1 2.1-.4 3-2.2 3-5.7zm-58.7 7.7c-1.7.7-2.7.5-3.6-1-.7-1.3-1.4-2.5-2.3-3.6-.5-.6-1.2-1-1.8-1.5-.2.1-.5.2-.7.3 0 1.6.1 3.1-.1 4.6-.1.6-.8 1-1.2 1.5-.4-.5-1.3-1-1.3-1.5-.1-4.4-.1-8.7-.1-13.4 2.3 0 4.3-.2 6.3.1 3 .4 4.4 4.3 2.3 6.7-1.3 1.4-1 2.5-.1 3.8.9 1.3 1.7 2.6 2.6 4zm-8.8-10.6c.1 2.9.4 2.5 2.1 2.6 2 .3 2.3-.7 2.6-2.2-.7-1.2-1.5-2.1-2.7-2.1-.4-.2-1.8-.3-2 1.7zm171.2-4.1c2.2 2.7 4.5 5.4 6.7 8.1.2-.1.5-.2.7-.4 0-1.9-.1-3.8.1-5.6.1-.7.7-1.3 1.2-1.9.4.6 1 1.2 1 1.8.1 4.3 0 8.7 0 13-.2.1-.5.2-.7.3-2.1-2.7-4.3-5.4-6.4-8.1-.2 0-.4.1-.6.1-.1 1.2-.1 2.4-.2 3.6 0 1 .1 2.1-.1 3.1-.1.4-.8.9-1.3 1-.3.1-1-.6-1-.9-.1-4.6 0-9.2 0-13.8 0-.1.3-.2.6-.3zm-40.5.1c0 3.9.1 7.4 0 10.9-.1 2.3-2.3 4-4.8 4.2-3.4.3-5.7-.8-6-3.4-.4-3.5-.3-7-.2-10.5 0-.5 1.1-.9 1.8-1.4.2.1.5.3.7.4 0 3.2-.1 6.4 0 9.5.1 2.6 2.6 3.9 4.5 2.4.7-.5 1.1-1.7 1.1-2.6.1-3 .1-6.1.1-9.3 1 0 1.7-.1 2.8-.2zm-180.4.3c0 3.7.2 7.4-.1 11-.1 2.4-2.6 3.9-5.8 3.8-2.9-.1-4.9-1.7-5.1-4.6-.2-2.9-.1-5.9 0-8.8 0-.6.8-1.1 1.3-1.6.4.5 1.2 1 1.2 1.6.1 2.5.1 5.1.1 7.7 0 2 .8 3.3 2.8 3.5 1.9.2 3-1.1 3-3.4v-7.4c0-1.7.7-2.4 2.6-1.8zm35.8 7.2c0-1.9-.1-3.8.1-5.7.1-.6.9-1.5 1.4-1.6 2.1-.2 4.3-.1 6.5 0 .5 0 .9.6 1.4 1-.4.4-.8 1.1-1.2 1.2-1.2.2-2.4.1-3.6.2-1.7.1-1.3 1.2-1.9 1.8.6.5.2 1.2.9 1.7.2.1 1.6-.2 1.7-.1.7.4 1.3.8 2 1.2-.7.4-1.3 1.2-2 1.2-1.8 0-3.1.4-2.6 2.5.2.7 1 1.5 1.7 1.7 1.1.3 2.4 0 3.6.2.5.1 1 .8 1.4 1.3-.4.4-.9 1-1.3 1-2.2.1-4.5.1-6.7 0-.5 0-1.2-1-1.3-1.5-.2-2.1-.1-4.2-.1-6.1zm-14.1-7.2c1.6-.5 2.6-.3 3 1.4.5 1.8 1.2 3.6 1.9 5.4.2.6.5 1.2 1.1 2.4 1-2.9 1.8-5.1 2.6-7.3.6-1.6 1.3-3 3.6-1.8-1.7 4.4-3.3 8.7-5.1 13-.2.6-.8 1-1.3 1.6-.5-.6-1.1-1.1-1.3-1.7-1.5-3.7-2.9-7.4-4.3-11.2-.1-.5-.1-1.1-.2-1.8zm103.4 5.6c1.1 0 2.2-.1 3.3.1.6.1 1 .7 1.5 1.1-.5.4-.9 1.1-1.5 1.2-1.1.2-2.2.2-3.7.3 0 1.7.1 3.4-.1 5 0 .5-.7 1-1.1 1.5-.5-.4-1.5-.9-1.5-1.3-.1-4.1-.1-8.1 0-12.2 0-.5 1-1.3 1.5-1.3 2.3-.2 4.6-.1 6.9 0 .5 0 1 .7 1.5 1.1-.5.4-1 1-1.6 1.1-1 .2-2.1.2-3.1.1-2-.3-2.9.6-2.1 3.3zm-57.9-3c-1.2-.4-2-.9-2.7-.9-.7 0-1.8.3-2 .8-.2.7 0 1.8.4 2.3.6.7 1.7 1.1 2.6 1.6 2.4 1.4 3.5 4.2 2.3 6.2-1.2 2.1-5.6 3-7.5 1.6-.4-.3-.8-1-.7-1.3.2-.5.9-.7 1.4-1 .2-.1.5.1.7.2 1.3.5 2.9.9 3.5-.7.7-1.8-.7-2.6-2.2-3.3-2.1-1-4.2-2.4-3.5-5.2.3-1.1 1.3-2.6 2.3-2.9 1.5-.5 3.3-.1 4.9.1.3.1.4 1.4.5 2.5zm116.4 9.2c1.1.3 2 .8 2.9.7.8-.1 1.9-.6 2.3-1.2.2-.4-.4-1.7-.9-2.2-.9-.8-2.3-1-3-1.8-1-1.3-2.2-2.9-2.1-4.4.1-1.9 1.7-3.3 4-3.2.8 0 1.7-.1 2.4.1.6.2.9 1 1.4 1.5-.6.2-1.3.8-1.8.6-1.4-.4-2.8-.5-3.2.9-.2.7.9 1.9 1.6 2.7.6.6 1.5.9 2.2 1.4 1.6 1.1 2.6 2.7 2 4.7-.6 2-2.1 3.2-4.3 3.2-.7 0-1.4 0-2.2-.1-1.6-.1-2.2-1-1.3-2.9zm15.5-12c1.5 0 3-.1 4.5 0 .4 0 .8.6 1.3 1-.4.4-.7 1.1-1.1 1.2-1.1.3-3 .1-3.3.7-.6 1.1-.4 2.8-.4 4.2 0 2.1.1 4.2-.1 6.2 0 .6-.8 1.1-1.3 1.6-.4-.5-1.2-1-1.2-1.6-.1-2.9-.2-5.7 0-8.6.1-1.8-.6-2.4-2.3-2.5-.8 0-2.3-.7-2.3-1.1-.1-1.9 1.5-1.1 2.5-1.1 1.1-.1 2.4-.1 3.7 0zm-119.4 8.7c0-1-.1-2.1 0-3.1.2-2.2-.3-3.5-2.9-3.4-.5 0-1.1-.8-1.7-1.3.6-.3 1.1-.9 1.7-1 3-.1 5.9-.1 8.9 0 .5 0 1 .7 1.5 1-.5.4-1 1.2-1.5 1.2-3.1-.3-3.5 1.4-3.3 3.9.2 2.2.1 4.5 0 6.7-.1.7-.8 1.3-1.3 2-.5-.7-1.2-1.4-1.3-2.1-.2-1.1-.1-2.5-.1-3.9zm12.9 5.9c1.2-5.5-2.1-9.7-4.8-14.2 2.1-1.2 3 .1 3.8 1.5.7 1.3 1.5 2.5 2.4 4.1 1-1.7 1.8-2.9 2.5-4.2.7-1.3 1.5-2.4 3.5-1.7-.9 1.8-1.6 3.6-2.7 5.2-1.6 2.2-2.1 4.6-1.8 7.2.1 2-.6 2.9-2.9 2.1zM171.3 144c2.4 0 4.8-.1 7.2.1.7 0 1.3.8 1.9 1.2-.6.5-1.3 1.4-1.9 1.5-4.8.1-9.6.1-14.4 0-.6 0-1.2-.9-1.8-1.3.6-.5 1.2-1.3 1.8-1.3 2.4-.3 4.8-.2 7.2-.2zm268.8 3.2c-.5-2 0-2.7 1.8-2.7 4.6.1 9.2.1 13.9 0 1.9 0 2.4.8 1.8 2.7h-17.5zm-224.6 6.2V139c1.6-.6 2.4-.2 2.4 1.6v11.3c0 1.6-.7 2.1-2.4 1.5zm53.6-7.5c0-1.9-.1-3.8.1-5.7 0-.5.7-.9 1.1-1.4.5.4 1.3.9 1.3 1.3.1 4.1.1 8.1 0 12.2 0 .5-1 .9-1.5 1.4-.3-.5-.9-1-1-1.6-.1-2 0-4.1 0-6.2z" class="st0"/></svg>